<svg width="455" height="48" viewBox="0 0 455 48" fill="none" xmlns="http://www.w3.org/2000/svg">
<path d="M0.115499 46V1.2H24.0515C30.2382 1.2 34.8035 2.30933 37.7475 4.528C40.6915 6.704 42.1635 9.49867 42.1635 12.912C42.1635 15.1733 41.5235 17.2 40.2435 18.992C39.0062 20.7413 37.1928 22.128 34.8035 23.152C32.4142 24.176 29.4702 24.688 25.9715 24.688L27.2515 21.232C30.7502 21.232 33.7582 21.7227 36.2755 22.704C38.8355 23.6853 40.7982 25.1147 42.1635 26.992C43.5715 28.8267 44.2755 31.0453 44.2755 33.648C44.2755 37.5307 42.6542 40.56 39.4115 42.736C36.2115 44.912 31.5182 46 25.3315 46H0.115499ZM14.9635 35.44H24.0515C25.7155 35.44 26.9528 35.1413 27.7635 34.544C28.6168 33.9467 29.0435 33.072 29.0435 31.92C29.0435 30.768 28.6168 29.8933 27.7635 29.296C26.9528 28.6987 25.7155 28.4 24.0515 28.4H13.9395V18.416H22.0035C23.7102 18.416 24.9475 18.1387 25.7155 17.584C26.5262 16.9867 26.9315 16.1547 26.9315 15.088C26.9315 13.9787 26.5262 13.1467 25.7155 12.592C24.9475 12.0373 23.7102 11.76 22.0035 11.76H14.9635V35.44ZM71.1195 17.84H91.0875V28.72H71.1195V17.84ZM72.1435 34.608H94.5435V46H57.2955V1.2H93.7115V12.592H72.1435V34.608ZM151.609 47.024C147.855 47.024 144.228 46.5973 140.729 45.744C137.231 44.8907 134.351 43.7813 132.089 42.416L136.953 31.408C139.087 32.6453 141.455 33.648 144.057 34.416C146.703 35.1413 149.263 35.504 151.737 35.504C153.188 35.504 154.319 35.4187 155.129 35.248C155.983 35.0347 156.601 34.7573 156.985 34.416C157.369 34.032 157.561 33.584 157.561 33.072C157.561 32.2613 157.113 31.6213 156.217 31.152C155.321 30.6827 154.127 30.2987 152.633 30C151.183 29.6587 149.583 29.3173 147.833 28.976C146.084 28.592 144.313 28.1013 142.521 27.504C140.772 26.9067 139.151 26.1173 137.657 25.136C136.207 24.1547 135.033 22.8747 134.137 21.296C133.241 19.6747 132.793 17.6693 132.793 15.28C132.793 12.5067 133.561 9.98933 135.097 7.728C136.676 5.424 139.001 3.58933 142.073 2.224C145.188 0.858665 149.049 0.175999 153.657 0.175999C156.687 0.175999 159.673 0.495998 162.617 1.136C165.561 1.776 168.207 2.75733 170.553 4.08L166.009 15.024C163.791 13.9147 161.636 13.0827 159.545 12.528C157.497 11.9733 155.492 11.696 153.529 11.696C152.079 11.696 150.927 11.824 150.073 12.08C149.22 12.336 148.601 12.6773 148.217 13.104C147.876 13.5307 147.705 14 147.705 14.512C147.705 15.28 148.153 15.8987 149.049 16.368C149.945 16.7947 151.119 17.1573 152.569 17.456C154.063 17.7547 155.684 18.0747 157.433 18.416C159.225 18.7573 160.996 19.2267 162.745 19.824C164.495 20.4213 166.095 21.2107 167.545 22.192C169.039 23.1733 170.233 24.4533 171.129 26.032C172.025 27.6107 172.473 29.5733 172.473 31.92C172.473 34.6507 171.684 37.168 170.105 39.472C168.569 41.7333 166.265 43.568 163.193 44.976C160.121 46.3413 156.26 47.024 151.609 47.024ZM193.751 46V12.912H180.631V1.2H221.975V12.912H208.855V46H193.751ZM233.578 46V1.2H255.146C259.327 1.2 262.933 1.88266 265.962 3.248C269.034 4.61333 271.402 6.576 273.066 9.136C274.73 11.6533 275.562 14.64 275.562 18.096C275.562 21.552 274.73 24.5387 273.066 27.056C271.402 29.5307 269.034 31.4293 265.962 32.752C262.933 34.0747 259.327 34.736 255.146 34.736H241.962L248.682 28.528V46H233.578ZM260.394 46L249.386 29.68H265.386L276.522 46H260.394ZM248.682 30.192L241.962 23.344H254.186C256.277 23.344 257.813 22.8747 258.794 21.936C259.818 20.9973 260.33 19.7173 260.33 18.096C260.33 16.4747 259.818 15.1947 258.794 14.256C257.813 13.3173 256.277 12.848 254.186 12.848H241.962L248.682 6V30.192ZM312.433 47.024C308.807 47.024 305.436 46.448 302.321 45.296C299.249 44.144 296.583 42.5227 294.321 40.432C292.06 38.2987 290.289 35.8027 289.009 32.944C287.772 30.0853 287.153 26.9707 287.153 23.6C287.153 20.1867 287.772 17.072 289.009 14.256C290.289 11.3973 292.06 8.92266 294.321 6.832C296.583 4.69866 299.249 3.056 302.321 1.904C305.436 0.751999 308.807 0.175999 312.433 0.175999C316.103 0.175999 319.473 0.751999 322.545 1.904C325.617 3.056 328.284 4.69866 330.545 6.832C332.807 8.92266 334.556 11.3973 335.793 14.256C337.073 17.072 337.713 20.1867 337.713 23.6C337.713 26.9707 337.073 30.0853 335.793 32.944C334.556 35.8027 332.807 38.2987 330.545 40.432C328.284 42.5227 325.617 44.144 322.545 45.296C319.473 46.448 316.103 47.024 312.433 47.024ZM312.433 34.8C313.841 34.8 315.143 34.544 316.337 34.032C317.575 33.52 318.641 32.7947 319.537 31.856C320.476 30.8747 321.201 29.7013 321.713 28.336C322.225 26.928 322.481 25.3493 322.481 23.6C322.481 21.8507 322.225 20.2933 321.713 18.928C321.201 17.52 320.476 16.3467 319.537 15.408C318.641 14.4267 317.575 13.68 316.337 13.168C315.143 12.656 313.841 12.4 312.433 12.4C311.025 12.4 309.703 12.656 308.465 13.168C307.271 13.68 306.204 14.4267 305.265 15.408C304.369 16.3467 303.665 17.52 303.153 18.928C302.641 20.2933 302.385 21.8507 302.385 23.6C302.385 25.3493 302.641 26.928 303.153 28.336C303.665 29.7013 304.369 30.8747 305.265 31.856C306.204 32.7947 307.271 33.52 308.465 34.032C309.703 34.544 311.025 34.8 312.433 34.8ZM350.876 46V1.2H363.292L386.076 28.464H380.316V1.2H395.036V46H382.62L359.836 18.736H365.596V46H350.876ZM433.225 47.024C429.598 47.024 426.249 46.4693 423.177 45.36C420.148 44.208 417.502 42.5867 415.241 40.496C413.022 38.4053 411.294 35.9307 410.057 33.072C408.82 30.2133 408.201 27.056 408.201 23.6C408.201 20.144 408.82 16.9867 410.057 14.128C411.294 11.2693 413.044 8.79467 415.305 6.704C417.566 4.61333 420.233 3.01333 423.305 1.904C426.42 0.751999 429.833 0.175999 433.545 0.175999C437.982 0.175999 441.929 0.922665 445.385 2.416C448.884 3.90933 451.764 6.04266 454.025 8.816L444.361 17.328C442.953 15.7067 441.417 14.4907 439.753 13.68C438.132 12.8267 436.318 12.4 434.313 12.4C432.649 12.4 431.134 12.656 429.769 13.168C428.446 13.68 427.316 14.4267 426.377 15.408C425.438 16.3893 424.713 17.5627 424.201 18.928C423.689 20.2933 423.433 21.8507 423.433 23.6C423.433 25.264 423.689 26.8 424.201 28.208C424.713 29.5733 425.438 30.7467 426.377 31.728C427.316 32.7093 428.425 33.4773 429.705 34.032C431.028 34.544 432.5 34.8 434.121 34.8C435.828 34.8 437.492 34.5227 439.113 33.968C440.734 33.3707 442.462 32.368 444.297 30.96L452.745 41.328C450.014 43.1627 446.9 44.5707 443.401 45.552C439.902 46.5333 436.51 47.024 433.225 47.024ZM439.625 39.408V22.384H452.745V41.328L439.625 39.408Z" fill="#939393"/>
</svg>
