<svg width="127" height="91" viewBox="0 0 127 91" fill="none" xmlns="http://www.w3.org/2000/svg">
<path d="M23.4095 42.7914C24.7345 42.7914 25.8086 38.0294 25.8086 32.1552C25.8086 26.2811 24.7345 21.5191 23.4095 21.5191C22.0846 21.5191 21.0105 26.2811 21.0105 32.1552C21.0105 38.0294 22.0846 42.7914 23.4095 42.7914Z" fill="#DA7143"/>
<path d="M31.4224 46.1096C33.4934 46.1096 35.1723 39.1831 35.1723 30.6391C35.1723 22.095 33.4934 15.1687 31.4224 15.1687C29.3515 15.1687 27.6726 22.095 27.6726 30.6391C27.6726 39.1831 29.3515 46.1096 31.4224 46.1096Z" fill="#DA7143"/>
<path d="M42.0535 48.9964C44.9529 48.9964 47.3033 40.3391 47.3033 29.6596C47.3033 18.98 44.9529 10.3226 42.0535 10.3226C39.1541 10.3226 36.8037 18.98 36.8037 29.6596C36.8037 40.3391 39.1541 48.9964 42.0535 48.9964Z" fill="#DA7143"/>
<path d="M103.591 42.8734C104.915 42.8734 105.989 38.1114 105.989 32.2372C105.989 26.3631 104.915 21.6011 103.591 21.6011C102.265 21.6011 101.191 26.3631 101.191 32.2372C101.191 38.1114 102.265 42.8734 103.591 42.8734Z" fill="#DA7143"/>
<path d="M95.5735 46.0977C97.6446 46.0977 99.3231 39.1713 99.3231 30.6272C99.3231 22.0831 97.6446 15.1568 95.5735 15.1568C93.5025 15.1568 91.8235 22.0831 91.8235 30.6272C91.8235 39.1713 93.5025 46.0977 95.5735 46.0977Z" fill="#DA7143"/>
<path d="M84.9422 48.9964C87.8418 48.9964 90.192 40.3391 90.192 29.6596C90.192 18.98 87.8418 10.3226 84.9422 10.3226C82.0431 10.3226 79.6924 18.98 79.6924 29.6596C79.6924 40.3391 82.0431 48.9964 84.9422 48.9964Z" fill="#DA7143"/>
<path d="M81.4202 24.7059H41.1455V35.6632H81.4202V24.7059Z" fill="#DA7143"/>
<path d="M105.883 54.9411H21.1172V60.0957H105.883V54.9411Z" fill="#DA7143"/>
<path d="M23.1002 76.7336C22.4305 76.7336 21.7836 76.6604 21.1595 76.5141C20.5355 76.3677 20.0218 76.1775 19.6184 75.9434L20.486 74.0557C20.8665 74.2679 21.2889 74.4398 21.7532 74.5715C22.225 74.6959 22.6816 74.7581 23.123 74.7581C23.3818 74.7581 23.5835 74.7435 23.7281 74.7142C23.8803 74.6776 23.9906 74.63 24.0591 74.5715C24.1276 74.5057 24.1619 74.4288 24.1619 74.341C24.1619 74.202 24.082 74.0923 23.9221 74.0118C23.7623 73.9313 23.5492 73.8655 23.2829 73.8142C23.0241 73.7557 22.7387 73.6972 22.4267 73.6386C22.1146 73.5728 21.7988 73.4887 21.4792 73.3862C21.1671 73.2838 20.8779 73.1484 20.6116 72.9802C20.3528 72.8119 20.1435 72.5924 19.9837 72.3217C19.8239 72.0436 19.744 71.6998 19.744 71.29C19.744 70.8144 19.881 70.3828 20.1549 69.995C20.4365 69.5999 20.8513 69.2853 21.3993 69.0511C21.9548 68.817 22.6436 68.7 23.4655 68.7C24.0059 68.7 24.5386 68.7548 25.0637 68.8646C25.5888 68.9743 26.0607 69.1426 26.4793 69.3694L25.6687 71.2461C25.273 71.0559 24.8887 70.9132 24.5158 70.8181C24.1505 70.723 23.7928 70.6754 23.4427 70.6754C23.1839 70.6754 22.9784 70.6974 22.8262 70.7413C22.674 70.7852 22.5637 70.8437 22.4952 70.9169C22.4343 70.99 22.4038 71.0705 22.4038 71.1583C22.4038 71.29 22.4838 71.3961 22.6436 71.4766C22.8034 71.5498 23.0127 71.612 23.2714 71.6632C23.5378 71.7144 23.827 71.7693 24.139 71.8278C24.4587 71.8863 24.7745 71.9668 25.0865 72.0692C25.3986 72.1717 25.684 72.307 25.9427 72.4753C26.2091 72.6436 26.4222 72.8631 26.582 73.1338C26.7418 73.4045 26.8217 73.7411 26.8217 74.1435C26.8217 74.6118 26.6809 75.0434 26.3994 75.4385C26.1254 75.8263 25.7144 76.1409 25.1665 76.3824C24.6185 76.6165 23.9298 76.7336 23.1002 76.7336ZM28.9933 76.558V68.8756H32.8404C33.5863 68.8756 34.2294 68.9926 34.7697 69.2267C35.3177 69.4609 35.74 69.7974 36.0368 70.2364C36.3337 70.6681 36.4821 71.1803 36.4821 71.7729C36.4821 72.3656 36.3337 72.8777 36.0368 73.3094C35.74 73.7411 35.3177 74.0776 34.7697 74.3191C34.2294 74.5532 33.5863 74.6703 32.8404 74.6703H30.4888L31.6875 73.5618V76.558H28.9933ZM31.6875 73.8472L30.4888 72.6729H32.6692C33.0421 72.6729 33.3161 72.5924 33.4911 72.4314C33.6738 72.2704 33.7651 72.0509 33.7651 71.7729C33.7651 71.4949 33.6738 71.2754 33.4911 71.1144C33.3161 70.9535 33.0421 70.873 32.6692 70.873H30.4888L31.6875 69.6987V73.8472ZM43.048 76.7336C42.3935 76.7336 41.7884 76.6348 41.2329 76.4372C40.6849 76.2397 40.2092 75.9617 39.8059 75.6032C39.4025 75.2373 39.0867 74.8093 38.8584 74.3191C38.6377 73.8289 38.5273 73.2948 38.5273 72.7168C38.5273 72.1314 38.6377 71.5973 38.8584 71.1144C39.0867 70.6242 39.4025 70.1999 39.8059 69.8413C40.2092 69.4755 40.6849 69.1938 41.2329 68.9963C41.7884 68.7987 42.3897 68.7 43.0365 68.7C43.691 68.7 44.2923 68.7987 44.8402 68.9963C45.3882 69.1938 45.8638 69.4755 46.2672 69.8413C46.6706 70.1999 46.9826 70.6242 47.2033 71.1144C47.4316 71.5973 47.5458 72.1314 47.5458 72.7168C47.5458 73.2948 47.4316 73.8289 47.2033 74.3191C46.9826 74.8093 46.6706 75.2373 46.2672 75.6032C45.8638 75.9617 45.3882 76.2397 44.8402 76.4372C44.2923 76.6348 43.6949 76.7336 43.048 76.7336ZM43.0365 74.6374C43.2877 74.6374 43.5198 74.5935 43.7329 74.5057C43.9536 74.4179 44.1439 74.2935 44.3037 74.1325C44.4711 73.9642 44.6005 73.763 44.6918 73.5289C44.7832 73.2875 44.8288 73.0167 44.8288 72.7168C44.8288 72.4168 44.7832 72.1497 44.6918 71.9156C44.6005 71.6741 44.4711 71.4729 44.3037 71.312C44.1439 71.1437 43.9536 71.0157 43.7329 70.9279C43.5198 70.8401 43.2877 70.7962 43.0365 70.7962C42.7854 70.7962 42.5495 70.8401 42.3288 70.9279C42.1157 71.0157 41.9254 71.1437 41.758 71.312C41.5982 71.4729 41.4726 71.6741 41.3813 71.9156C41.2899 72.1497 41.2443 72.4168 41.2443 72.7168C41.2443 73.0167 41.2899 73.2875 41.3813 73.5289C41.4726 73.763 41.5982 73.9642 41.758 74.1325C41.9254 74.2935 42.1157 74.4179 42.3288 74.5057C42.5495 74.5935 42.7854 74.6374 43.0365 74.6374ZM49.8934 76.558V68.8756H53.7405C54.4863 68.8756 55.1294 68.9926 55.6697 69.2267C56.2177 69.4609 56.6401 69.7974 56.9369 70.2364C57.2337 70.6681 57.3821 71.1803 57.3821 71.7729C57.3821 72.3656 57.2337 72.8777 56.9369 73.3094C56.6401 73.7338 56.2177 74.0593 55.6697 74.2862C55.1294 74.513 54.4863 74.6264 53.7405 74.6264H51.3888L52.5875 73.5618V76.558H49.8934ZM54.6765 76.558L52.713 73.7594H55.567L57.5533 76.558H54.6765ZM52.5875 73.8472L51.3888 72.6729H53.5692C53.9421 72.6729 54.2161 72.5924 54.3912 72.4314C54.5738 72.2704 54.6651 72.0509 54.6651 71.7729C54.6651 71.4949 54.5738 71.2754 54.3912 71.1144C54.2161 70.9535 53.9421 70.873 53.5692 70.873H51.3888L52.5875 69.6987V73.8472ZM61.3933 76.558V70.884H59.0531V68.8756H66.4276V70.884H64.0874V76.558H61.3933ZM68.4972 76.558V68.8756H70.7118L73.9082 73.8911H72.7438L75.8489 68.8756H78.0636L78.0864 76.558H75.632L75.6092 72.4314H75.9973L73.874 75.8665H72.6868L70.4721 72.4314H70.9516V76.558H68.4972ZM83.2244 71.729H86.7861V73.5947H83.2244V71.729ZM83.4071 74.6044H87.4026V76.558H80.7586V68.8756H87.2542V70.8291H83.4071V74.6044ZM89.8099 76.558V68.8756H93.657C94.4028 68.8756 95.0459 68.9926 95.5862 69.2267C96.1342 69.4609 96.5566 69.7974 96.8534 70.2364C97.1502 70.6681 97.2986 71.1803 97.2986 71.7729C97.2986 72.3656 97.1502 72.8777 96.8534 73.3094C96.5566 73.7338 96.1342 74.0593 95.5862 74.2862C95.0459 74.513 94.4028 74.6264 93.657 74.6264H91.3053L92.504 73.5618V76.558H89.8099ZM94.5931 76.558L92.6296 73.7594H95.4835L97.4698 76.558H94.5931ZM92.504 73.8472L91.3053 72.6729H93.4857C93.8587 72.6729 94.1326 72.5924 94.3077 72.4314C94.4903 72.2704 94.5817 72.0509 94.5817 71.7729C94.5817 71.4949 94.4903 71.2754 94.3077 71.1144C94.1326 70.9535 93.8587 70.873 93.4857 70.873H91.3053L92.504 69.6987V73.8472ZM103.818 76.7336C103.179 76.7336 102.586 76.6384 102.038 76.4482C101.497 76.2507 101.025 75.9726 100.622 75.6141C100.226 75.2556 99.918 74.8313 99.6973 74.341C99.4766 73.8508 99.3663 73.3094 99.3663 72.7168C99.3663 72.1241 99.4766 71.5827 99.6973 71.0925C99.918 70.6023 100.226 70.1779 100.622 69.8194C101.025 69.4609 101.497 69.1865 102.038 68.9963C102.586 68.7987 103.179 68.7 103.818 68.7C104.602 68.7 105.295 68.8317 105.896 69.0951C106.505 69.3584 107.007 69.7389 107.403 70.2364L105.702 71.6961C105.466 71.4107 105.204 71.1912 104.914 71.0376C104.633 70.8766 104.313 70.7962 103.955 70.7962C103.674 70.7962 103.419 70.8401 103.191 70.9279C102.962 71.0157 102.764 71.1437 102.597 71.312C102.437 71.4803 102.312 71.6851 102.22 71.9266C102.129 72.1607 102.083 72.4241 102.083 72.7168C102.083 73.0094 102.129 73.2765 102.22 73.5179C102.312 73.7521 102.437 73.9533 102.597 74.1215C102.764 74.2898 102.962 74.4179 103.191 74.5057C103.419 74.5935 103.674 74.6374 103.955 74.6374C104.313 74.6374 104.633 74.5605 104.914 74.4069C105.204 74.2459 105.466 74.0228 105.702 73.7374L107.403 75.1971C107.007 75.6873 106.505 76.0678 105.896 76.3385C105.295 76.6019 104.602 76.7336 103.818 76.7336Z" fill="#DA7143"/>
</svg>
